<svg id="Layer_1" data-name="Layer 1" xmlns="http://www.w3.org/2000/svg" width="97.7742" height="100" viewBox="0 0 97.7742 100"><line x1="0.5" x2="0.5" y2="100" style="fill:none;stroke:#231f20;stroke-miterlimit:10"/><line x1="3.7258" x2="3.7258" y2="100" style="fill:none;stroke:#231f20;stroke-miterlimit:10"/><line x1="6.9516" x2="6.9516" y2="100" style="fill:none;stroke:#231f20;stroke-miterlimit:10"/><line x1="10.1774" x2="10.1774" y2="100" style="fill:none;stroke:#231f20;stroke-miterlimit:10"/><line x1="13.4032" x2="13.4032" y2="100" style="fill:none;stroke:#231f20;stroke-miterlimit:10"/><line x1="16.629" x2="16.629" y2="100" style="fill:none;stroke:#231f20;stroke-miterlimit:10"/><line x1="19.8548" x2="19.8548" y2="100" style="fill:none;stroke:#231f20;stroke-miterlimit:10"/><line x1="23.0806" x2="23.0806" y2="100" style="fill:none;stroke:#231f20;stroke-miterlimit:10"/><line x1="26.3065" x2="26.3065" y2="100" style="fill:none;stroke:#231f20;stroke-miterlimit:10"/><line x1="29.5323" x2="29.5323" y2="100" style="fill:none;stroke:#231f20;stroke-miterlimit:10"/><line x1="32.7581" x2="32.7581" y2="100" style="fill:none;stroke:#231f20;stroke-miterlimit:10"/><line x1="35.9839" x2="35.9839" y2="100" style="fill:none;stroke:#231f20;stroke-miterlimit:10"/><line x1="39.2097" x2="39.2097" y2="100" style="fill:none;stroke:#231f20;stroke-miterlimit:10"/><line x1="42.4355" x2="42.4355" y2="100" style="fill:none;stroke:#231f20;stroke-miterlimit:10"/><line x1="45.6613" x2="45.6613" y2="100" style="fill:none;stroke:#231f20;stroke-miterlimit:10"/><line x1="48.8871" x2="48.8871" y2="100" style="fill:none;stroke:#231f20;stroke-miterlimit:10"/><line x1="52.1129" x2="52.1129" y2="100" style="fill:none;stroke:#231f20;stroke-miterlimit:10"/><line x1="55.3387" x2="55.3387" y2="100" style="fill:none;stroke:#231f20;stroke-miterlimit:10"/><line x1="58.5645" x2="58.5645" y2="100" style="fill:none;stroke:#231f20;stroke-miterlimit:10"/><line x1="61.7903" x2="61.7903" y2="100" style="fill:none;stroke:#231f20;stroke-miterlimit:10"/><line x1="65.0161" x2="65.0161" y2="100" style="fill:none;stroke:#231f20;stroke-miterlimit:10"/><line x1="68.2419" x2="68.2419" y2="100" style="fill:none;stroke:#231f20;stroke-miterlimit:10"/><line x1="71.4677" x2="71.4677" y2="100" style="fill:none;stroke:#231f20;stroke-miterlimit:10"/><line x1="74.6935" x2="74.6935" y2="100" style="fill:none;stroke:#231f20;stroke-miterlimit:10"/><line x1="77.9194" x2="77.9194" y2="100" style="fill:none;stroke:#231f20;stroke-miterlimit:10"/><line x1="81.1452" x2="81.1452" y2="100" style="fill:none;stroke:#231f20;stroke-miterlimit:10"/><line x1="84.371" x2="84.371" y2="100" style="fill:none;stroke:#231f20;stroke-miterlimit:10"/><line x1="87.5968" x2="87.5968" y2="100" style="fill:none;stroke:#231f20;stroke-miterlimit:10"/><line x1="90.8226" x2="90.8226" y2="100" style="fill:none;stroke:#231f20;stroke-miterlimit:10"/><line x1="94.0484" x2="94.0484" y2="100" style="fill:none;stroke:#231f20;stroke-miterlimit:10"/><line x1="97.2742" x2="97.2742" y2="100" style="fill:none;stroke:#231f20;stroke-miterlimit:10"/><path d="M100,100" transform="translate(0.5)" style="fill:none;stroke:#231f20;stroke-miterlimit:10"/><path d="M100,0" transform="translate(0.5)" style="fill:none;stroke:#231f20;stroke-miterlimit:10"/></svg>