<?xml version="1.0" encoding="utf-8"?>
<!-- Generator: Adobe Illustrator 24.2.0, SVG Export Plug-In . SVG Version: 6.00 Build 0)  -->
<svg version="1.1" id="Layer_1" xmlns="http://www.w3.org/2000/svg" xmlns:xlink="http://www.w3.org/1999/xlink" x="0px" y="0px"
	 width="100px" height="100px" viewBox="0 0 100 100" style="enable-background:new 0 0 100 100;" xml:space="preserve">
<style type="text/css">
	.st0{fill:none;stroke:#000000;stroke-miterlimit:10;}
</style>
<g>
	<line class="st0" x1="0" y1="0" x2="0" y2="100"/>
	<line class="st0" x1="3.2258" y1="0" x2="3.2258" y2="100"/>
	<line class="st0" x1="6.4516" y1="0" x2="6.4516" y2="100"/>
	<line class="st0" x1="9.6774" y1="0" x2="9.6774" y2="100"/>
	<line class="st0" x1="12.9032" y1="0" x2="12.9032" y2="100"/>
	<line class="st0" x1="16.129" y1="0" x2="16.129" y2="100"/>
	<line class="st0" x1="19.3548" y1="0" x2="19.3548" y2="100"/>
	<line class="st0" x1="22.5806" y1="0" x2="22.5806" y2="100"/>
	<line class="st0" x1="25.8065" y1="0" x2="25.8065" y2="100"/>
	<line class="st0" x1="29.0323" y1="0" x2="29.0323" y2="100"/>
	<line class="st0" x1="32.2581" y1="0" x2="32.2581" y2="100"/>
	<line class="st0" x1="35.4839" y1="0" x2="35.4839" y2="100"/>
	<line class="st0" x1="38.7097" y1="0" x2="38.7097" y2="100"/>
	<line class="st0" x1="41.9355" y1="0" x2="41.9355" y2="100"/>
	<line class="st0" x1="45.1613" y1="0" x2="45.1613" y2="100"/>
	<line class="st0" x1="48.3871" y1="0" x2="48.3871" y2="100"/>
	<line class="st0" x1="51.6129" y1="0" x2="51.6129" y2="100"/>
	<line class="st0" x1="54.8387" y1="0" x2="54.8387" y2="100"/>
	<line class="st0" x1="58.0645" y1="0" x2="58.0645" y2="100"/>
	<line class="st0" x1="61.2903" y1="0" x2="61.2903" y2="100"/>
	<line class="st0" x1="64.5161" y1="0" x2="64.5161" y2="100"/>
	<line class="st0" x1="67.7419" y1="0" x2="67.7419" y2="100"/>
	<line class="st0" x1="70.9677" y1="0" x2="70.9677" y2="100"/>
	<line class="st0" x1="74.1936" y1="0" x2="74.1936" y2="100"/>
	<line class="st0" x1="77.4194" y1="0" x2="77.4194" y2="100"/>
	<line class="st0" x1="80.6452" y1="0" x2="80.6452" y2="100"/>
	<line class="st0" x1="83.871" y1="0" x2="83.871" y2="100"/>
	<line class="st0" x1="87.0968" y1="0" x2="87.0968" y2="100"/>
	<line class="st0" x1="90.3226" y1="0" x2="90.3226" y2="100"/>
	<line class="st0" x1="93.5484" y1="0" x2="93.5484" y2="100"/>
	<line class="st0" x1="96.7742" y1="0" x2="96.7742" y2="100"/>
</g>
</svg>
